<svg xmlns="http://www.w3.org/2000/svg" viewBox="0 0 800 520" font-family="'Segoe UI', system-ui, sans-serif">
  <defs>
    <linearGradient id="bg3" x1="0" y1="0" x2="0" y2="1">
      <stop offset="0%" stop-color="#1a1a2e"/>
      <stop offset="100%" stop-color="#16213e"/>
    </linearGradient>
  </defs>
  <rect width="800" height="520" fill="url(#bg3)" rx="16"/>

  <text x="400" y="40" text-anchor="middle" fill="#e0e0e0" font-size="20" font-weight="bold">Quale distro fa per te?</text>

  <!-- Start node -->
  <rect x="300" y="60" width="200" height="40" rx="20" fill="#6366f1" fill-opacity="0.3" stroke="#a78bfa" stroke-width="2"/>
  <text x="400" y="85" text-anchor="middle" fill="#e0e0e0" font-size="13" font-weight="600">Che livello hai?</text>

  <!-- Arrows from start -->
  <line x1="330" y1="100" x2="180" y2="140" stroke="#64748b" stroke-width="1.5" marker-end="url(#arrow)"/>
  <line x1="400" y1="100" x2="400" y2="140" stroke="#64748b" stroke-width="1.5"/>
  <line x1="470" y1="100" x2="620" y2="140" stroke="#64748b" stroke-width="1.5"/>

  <!-- Level labels -->
  <text x="240" y="125" fill="#94a3b8" font-size="11">Principiante</text>
  <text x="380" y="125" fill="#94a3b8" font-size="11">Intermedio</text>
  <text x="545" y="125" fill="#94a3b8" font-size="11">Avanzato</text>

  <!-- Beginner branch -->
  <rect x="80" y="140" width="200" height="45" rx="10" fill="#22c55e" fill-opacity="0.15" stroke="#22c55e" stroke-width="1.5"/>
  <text x="180" y="160" text-anchor="middle" fill="#22c55e" font-size="13" font-weight="600">Fedora Workstation</text>
  <text x="180" y="176" text-anchor="middle" fill="#86efac" font-size="10">Facile, SELinux attivo, GNOME</text>

  <!-- Intermediate branch -->
  <rect x="300" y="140" width="200" height="40" rx="10" fill="#6366f1" fill-opacity="0.15" stroke="#6366f1" stroke-width="1.5"/>
  <text x="400" y="165" text-anchor="middle" fill="#c4b5fd" font-size="13" font-weight="600">Vuoi un sistema immutabile?</text>

  <!-- Intermediate answers -->
  <line x1="350" y1="180" x2="250" y2="220" stroke="#64748b" stroke-width="1.5"/>
  <line x1="450" y1="180" x2="550" y2="220" stroke="#64748b" stroke-width="1.5"/>
  <text x="280" y="205" fill="#94a3b8" font-size="11">Sì</text>
  <text x="510" y="205" fill="#94a3b8" font-size="11">No</text>

  <rect x="140" y="220" width="220" height="45" rx="10" fill="#3b82f6" fill-opacity="0.15" stroke="#3b82f6" stroke-width="1.5"/>
  <text x="250" y="240" text-anchor="middle" fill="#3b82f6" font-size="13" font-weight="600">Fedora Atomic / Silverblue</text>
  <text x="250" y="256" text-anchor="middle" fill="#93c5fd" font-size="10">Immutabile, Flatpak-first</text>

  <rect x="440" y="220" width="220" height="45" rx="10" fill="#3b82f6" fill-opacity="0.15" stroke="#3b82f6" stroke-width="1.5"/>
  <text x="550" y="240" text-anchor="middle" fill="#3b82f6" font-size="13" font-weight="600">openSUSE Tumbleweed</text>
  <text x="550" y="256" text-anchor="middle" fill="#93c5fd" font-size="10">Rolling, Btrfs snapshots</text>

  <!-- Advanced branch -->
  <rect x="520" y="140" width="200" height="40" rx="10" fill="#6366f1" fill-opacity="0.15" stroke="#6366f1" stroke-width="1.5"/>
  <text x="620" y="165" text-anchor="middle" fill="#c4b5fd" font-size="13" font-weight="600">Priorità massima?</text>

  <!-- Advanced sub -->
  <line x1="570" y1="180" x2="480" y2="310" stroke="#64748b" stroke-width="1.5"/>
  <line x1="620" y1="180" x2="620" y2="310" stroke="#64748b" stroke-width="1.5"/>
  <line x1="670" y1="180" x2="730" y2="310" stroke="#64748b" stroke-width="1.5"/>

  <text x="500" y="300" fill="#94a3b8" font-size="11">Hardening max</text>
  <text x="603" y="300" fill="#94a3b8" font-size="11">Controllo</text>
  <text x="710" y="300" fill="#94a3b8" font-size="11">Anonimato</text>

  <rect x="390" y="310" width="180" height="45" rx="10" fill="#eab308" fill-opacity="0.15" stroke="#eab308" stroke-width="1.5"/>
  <text x="480" y="330" text-anchor="middle" fill="#eab308" font-size="13" font-weight="600">SecureBlue</text>
  <text x="480" y="346" text-anchor="middle" fill="#fde047" font-size="10">Fedora Atomic + hardening</text>

  <rect x="540" y="310" width="160" height="45" rx="10" fill="#f97316" fill-opacity="0.15" stroke="#f97316" stroke-width="1.5"/>
  <text x="620" y="330" text-anchor="middle" fill="#f97316" font-size="13" font-weight="600">Arch Linux</text>
  <text x="620" y="346" text-anchor="middle" fill="#fdba74" font-size="10">Controllo totale, DIY</text>

  <rect x="650" y="310" width="140" height="45" rx="10" fill="#8b5cf6" fill-opacity="0.15" stroke="#8b5cf6" stroke-width="1.5"/>
  <text x="720" y="330" text-anchor="middle" fill="#8b5cf6" font-size="13" font-weight="600">Whonix</text>
  <text x="720" y="346" text-anchor="middle" fill="#c4b5fd" font-size="10">Tor gateway, 2 VM</text>

  <!-- Warning box -->
  <rect x="100" y="400" width="600" height="70" rx="12" fill="#ef4444" fill-opacity="0.08" stroke="#ef4444" stroke-width="1.5" stroke-dasharray="6,3"/>
  <text x="400" y="425" text-anchor="middle" fill="#ef4444" font-size="14" font-weight="bold">DA EVITARE per uso quotidiano</text>
  <text x="400" y="448" text-anchor="middle" fill="#fca5a5" font-size="12">Kali Linux • BlackArch • Parrot OS • Manjaro • Distro con kernel Linux-libre</text>
  <text x="400" y="462" text-anchor="middle" fill="#94a3b8" font-size="10">Sono strumenti di pentesting, NON sistemi sicuri per tutti i giorni</text>

  <!-- Arrowhead marker -->
  <defs>
    <marker id="arrow" markerWidth="8" markerHeight="8" refX="8" refY="4" orient="auto">
      <path d="M0,0 L8,4 L0,8" fill="none" stroke="#64748b" stroke-width="1.5"/>
    </marker>
  </defs>
</svg>
