<svg xmlns="http://www.w3.org/2000/svg" viewBox="0 0 700 350" font-family="'Segoe UI', system-ui, sans-serif">
  <defs>
    <linearGradient id="bg7" x1="0" y1="0" x2="0" y2="1">
      <stop offset="0%" stop-color="#1a1a2e"/>
      <stop offset="100%" stop-color="#16213e"/>
    </linearGradient>
  </defs>
  <rect width="700" height="350" fill="url(#bg7)" rx="16"/>

  <text x="350" y="35" text-anchor="middle" fill="#e0e0e0" font-size="18" font-weight="bold">Firewall: zona "drop" — blocca tutto in ingresso</text>

  <!-- Internet cloud -->
  <ellipse cx="120" cy="175" rx="80" ry="55" fill="#ef4444" fill-opacity="0.08" stroke="#ef4444" stroke-width="1.5"/>
  <text x="120" y="165" text-anchor="middle" fill="#ef4444" font-size="14" font-weight="600">Internet</text>
  <text x="120" y="185" text-anchor="middle" fill="#fca5a5" font-size="10">Traffico in ingresso</text>

  <!-- Arrows incoming (blocked) -->
  <line x1="200" y1="140" x2="290" y2="140" stroke="#ef4444" stroke-width="2"/>
  <line x1="200" y1="175" x2="290" y2="175" stroke="#ef4444" stroke-width="2"/>
  <line x1="200" y1="210" x2="290" y2="210" stroke="#ef4444" stroke-width="2"/>

  <!-- X marks -->
  <text x="270" y="145" fill="#ef4444" font-size="18" font-weight="bold">✕</text>
  <text x="270" y="180" fill="#ef4444" font-size="18" font-weight="bold">✕</text>
  <text x="270" y="215" fill="#ef4444" font-size="18" font-weight="bold">✕</text>

  <!-- Labels for blocked -->
  <text x="250" y="130" fill="#fca5a5" font-size="9">Port scan</text>
  <text x="250" y="165" fill="#fca5a5" font-size="9">SSH brute force</text>
  <text x="250" y="200" fill="#fca5a5" font-size="9">Exploit remoto</text>

  <!-- Firewall wall -->
  <rect x="295" y="70" width="20" height="230" rx="3" fill="#f97316" fill-opacity="0.4" stroke="#f97316" stroke-width="2"/>
  <rect x="310" y="70" width="8" height="230" rx="2" fill="#f97316" fill-opacity="0.2"/>

  <text x="310" y="60" text-anchor="middle" fill="#f97316" font-size="12" font-weight="bold">FIREWALL</text>
  <text x="310" y="320" text-anchor="middle" fill="#f97316" font-size="10">zona: drop</text>

  <!-- Exceptions (small openings) -->
  <rect x="295" y="155" width="28" height="15" rx="2" fill="#22c55e" fill-opacity="0.3" stroke="#22c55e" stroke-width="1"/>
  <text x="340" y="166" fill="#86efac" font-size="8">DHCPv6</text>

  <rect x="295" y="180" width="28" height="15" rx="2" fill="#22c55e" fill-opacity="0.3" stroke="#22c55e" stroke-width="1"/>
  <text x="340" y="191" fill="#86efac" font-size="8">ICMPv6</text>

  <!-- Your PC -->
  <rect x="380" y="110" width="280" height="150" rx="14" fill="#22c55e" fill-opacity="0.06" stroke="#22c55e" stroke-width="1.5"/>
  <text x="520" y="140" text-anchor="middle" fill="#22c55e" font-size="15" font-weight="bold">Il tuo PC Linux</text>

  <!-- Outgoing traffic (allowed) -->
  <rect x="410" y="160" width="110" height="30" rx="6" fill="#3b82f6" fill-opacity="0.15" stroke="#3b82f6" stroke-width="1"/>
  <text x="465" y="180" text-anchor="middle" fill="#93c5fd" font-size="11">Browser ✓</text>

  <rect x="530" y="160" width="110" height="30" rx="6" fill="#3b82f6" fill-opacity="0.15" stroke="#3b82f6" stroke-width="1"/>
  <text x="585" y="180" text-anchor="middle" fill="#93c5fd" font-size="11">DNS ✓</text>

  <rect x="410" y="200" width="110" height="30" rx="6" fill="#3b82f6" fill-opacity="0.15" stroke="#3b82f6" stroke-width="1"/>
  <text x="465" y="220" text-anchor="middle" fill="#93c5fd" font-size="11">Aggiornamenti ✓</text>

  <rect x="530" y="200" width="110" height="30" rx="6" fill="#3b82f6" fill-opacity="0.15" stroke="#3b82f6" stroke-width="1"/>
  <text x="585" y="220" text-anchor="middle" fill="#93c5fd" font-size="11">Email ✓</text>

  <!-- Outgoing arrow -->
  <line x1="380" y1="245" x2="320" y2="245" stroke="#22c55e" stroke-width="1.5"/>
  <text x="350" y="240" fill="#22c55e" font-size="8">traffico in uscita OK</text>

  <!-- Note -->
  <text x="350" y="345" text-anchor="middle" fill="#64748b" font-size="11" font-style="italic">Tutto il traffico in uscita è permesso — tutto l'ingresso non richiesto viene scartato</text>
</svg>
