<svg xmlns="http://www.w3.org/2000/svg" viewBox="0 0 800 320" font-family="'Segoe UI', system-ui, sans-serif">
  <defs>
    <linearGradient id="bg6" x1="0" y1="0" x2="0" y2="1">
      <stop offset="0%" stop-color="#1a1a2e"/>
      <stop offset="100%" stop-color="#16213e"/>
    </linearGradient>
    <marker id="arr3" markerWidth="8" markerHeight="8" refX="8" refY="4" orient="auto">
      <path d="M0,1 L8,4 L0,7" fill="none" stroke="#22c55e" stroke-width="1.5"/>
    </marker>
    <marker id="arr4" markerWidth="8" markerHeight="8" refX="8" refY="4" orient="auto">
      <path d="M0,1 L8,4 L0,7" fill="none" stroke="#eab308" stroke-width="1.5"/>
    </marker>
  </defs>
  <rect width="800" height="320" fill="url(#bg6)" rx="16"/>

  <text x="400" y="35" text-anchor="middle" fill="#e0e0e0" font-size="18" font-weight="bold">Secure Boot: catena di fiducia</text>

  <!-- Standard Secure Boot (top) -->
  <text x="50" y="70" fill="#eab308" font-size="13" font-weight="bold">Standard (chiavi Microsoft)</text>

  <rect x="50" y="80" width="130" height="50" rx="8" fill="#eab308" fill-opacity="0.15" stroke="#eab308" stroke-width="1.5"/>
  <text x="115" y="102" text-anchor="middle" fill="#eab308" font-size="12" font-weight="600">UEFI Firmware</text>
  <text x="115" y="118" text-anchor="middle" fill="#fde047" font-size="9">Chiavi Microsoft</text>

  <line x1="180" y1="105" x2="220" y2="105" stroke="#eab308" stroke-width="1.5" marker-end="url(#arr4)"/>

  <rect x="225" y="80" width="110" height="50" rx="8" fill="#eab308" fill-opacity="0.15" stroke="#eab308" stroke-width="1.5"/>
  <text x="280" y="102" text-anchor="middle" fill="#eab308" font-size="12" font-weight="600">Shim</text>
  <text x="280" y="118" text-anchor="middle" fill="#fde047" font-size="9">Firmato Microsoft</text>

  <line x1="335" y1="105" x2="375" y2="105" stroke="#eab308" stroke-width="1.5" marker-end="url(#arr4)"/>

  <rect x="380" y="80" width="110" height="50" rx="8" fill="#eab308" fill-opacity="0.15" stroke="#eab308" stroke-width="1.5"/>
  <text x="435" y="102" text-anchor="middle" fill="#eab308" font-size="12" font-weight="600">GRUB</text>
  <text x="435" y="118" text-anchor="middle" fill="#fde047" font-size="9">Firmato distro</text>

  <line x1="490" y1="105" x2="530" y2="105" stroke="#eab308" stroke-width="1.5" marker-end="url(#arr4)"/>

  <rect x="535" y="80" width="100" height="50" rx="8" fill="#eab308" fill-opacity="0.15" stroke="#eab308" stroke-width="1.5"/>
  <text x="585" y="102" text-anchor="middle" fill="#eab308" font-size="12" font-weight="600">Kernel</text>
  <text x="585" y="118" text-anchor="middle" fill="#fde047" font-size="9">Firmato distro</text>

  <line x1="635" y1="105" x2="675" y2="105" stroke="#ef4444" stroke-width="1.5" stroke-dasharray="4,3"/>

  <rect x="680" y="80" width="100" height="50" rx="8" fill="#ef4444" fill-opacity="0.1" stroke="#ef4444" stroke-width="1.5" stroke-dasharray="4,3"/>
  <text x="730" y="102" text-anchor="middle" fill="#ef4444" font-size="12" font-weight="600">initramfs</text>
  <text x="730" y="118" text-anchor="middle" fill="#fca5a5" font-size="9">NON verificato!</text>

  <!-- Custom Secure Boot (bottom) -->
  <text x="50" y="185" fill="#22c55e" font-size="13" font-weight="bold">Custom (le TUE chiavi + UKI)</text>

  <rect x="50" y="195" width="130" height="50" rx="8" fill="#22c55e" fill-opacity="0.15" stroke="#22c55e" stroke-width="1.5"/>
  <text x="115" y="217" text-anchor="middle" fill="#22c55e" font-size="12" font-weight="600">UEFI Firmware</text>
  <text x="115" y="233" text-anchor="middle" fill="#86efac" font-size="9">Le TUE chiavi (sbctl)</text>

  <line x1="180" y1="220" x2="250" y2="220" stroke="#22c55e" stroke-width="1.5" marker-end="url(#arr3)"/>

  <rect x="255" y="195" width="140" height="50" rx="8" fill="#22c55e" fill-opacity="0.15" stroke="#22c55e" stroke-width="1.5"/>
  <text x="325" y="217" text-anchor="middle" fill="#22c55e" font-size="12" font-weight="600">systemd-boot</text>
  <text x="325" y="233" text-anchor="middle" fill="#86efac" font-size="9">Firmato con le tue chiavi</text>

  <line x1="395" y1="220" x2="435" y2="220" stroke="#22c55e" stroke-width="1.5" marker-end="url(#arr3)"/>

  <rect x="440" y="190" width="300" height="60" rx="8" fill="#22c55e" fill-opacity="0.15" stroke="#22c55e" stroke-width="2"/>
  <text x="590" y="215" text-anchor="middle" fill="#22c55e" font-size="13" font-weight="bold">Unified Kernel Image (UKI)</text>
  <text x="590" y="235" text-anchor="middle" fill="#86efac" font-size="10">Kernel + initramfs + microcode — tutto firmato insieme</text>

  <!-- Comparison note -->
  <rect x="100" y="270" width="600" height="35" rx="8" fill="#3b82f6" fill-opacity="0.08" stroke="#3b82f6" stroke-width="1"/>
  <text x="400" y="292" text-anchor="middle" fill="#93c5fd" font-size="12">Con UKI + chiavi custom: nessun componente non verificato nella catena di boot</text>
</svg>
