<svg xmlns="http://www.w3.org/2000/svg" viewBox="0 0 750 340" font-family="'Segoe UI', system-ui, sans-serif">
  <defs>
    <linearGradient id="bg8" x1="0" y1="0" x2="0" y2="1">
      <stop offset="0%" stop-color="#1a1a2e"/>
      <stop offset="100%" stop-color="#16213e"/>
    </linearGradient>
    <marker id="arr5" markerWidth="8" markerHeight="8" refX="8" refY="4" orient="auto">
      <path d="M0,1 L8,4 L0,7" fill="none" stroke="#8b5cf6" stroke-width="1.5"/>
    </marker>
    <marker id="arr6" markerWidth="8" markerHeight="8" refX="8" refY="4" orient="auto">
      <path d="M0,1 L8,4 L0,7" fill="none" stroke="#22c55e" stroke-width="1.5"/>
    </marker>
  </defs>
  <rect width="750" height="340" fill="url(#bg8)" rx="16"/>

  <text x="375" y="35" text-anchor="middle" fill="#e0e0e0" font-size="18" font-weight="bold">Architettura Whonix: isolamento a due VM</text>

  <!-- Host -->
  <rect x="30" y="50" width="690" height="260" rx="14" fill="#334155" fill-opacity="0.2" stroke="#475569" stroke-width="1.5"/>
  <text x="375" y="75" text-anchor="middle" fill="#94a3b8" font-size="12">Host (il vostro computer fisico)</text>

  <!-- Workstation VM -->
  <rect x="60" y="90" width="250" height="195" rx="12" fill="#3b82f6" fill-opacity="0.08" stroke="#3b82f6" stroke-width="2"/>
  <text x="185" y="115" text-anchor="middle" fill="#3b82f6" font-size="14" font-weight="bold">VM Workstation</text>
  <text x="185" y="135" text-anchor="middle" fill="#93c5fd" font-size="11">Dove lavorate</text>

  <rect x="85" y="150" width="90" height="30" rx="6" fill="#3b82f6" fill-opacity="0.15" stroke="#3b82f6" stroke-width="1"/>
  <text x="130" y="170" text-anchor="middle" fill="#93c5fd" font-size="10">Browser</text>

  <rect x="185" y="150" width="100" height="30" rx="6" fill="#3b82f6" fill-opacity="0.15" stroke="#3b82f6" stroke-width="1"/>
  <text x="235" y="170" text-anchor="middle" fill="#93c5fd" font-size="10">Applicazioni</text>

  <rect x="85" y="190" width="200" height="30" rx="6" fill="#3b82f6" fill-opacity="0.1" stroke="#3b82f6" stroke-width="1"/>
  <text x="185" y="210" text-anchor="middle" fill="#93c5fd" font-size="10">NO accesso diretto alla rete</text>

  <rect x="85" y="230" width="200" height="35" rx="6" fill="#ef4444" fill-opacity="0.1" stroke="#ef4444" stroke-width="1" stroke-dasharray="4,3"/>
  <text x="185" y="250" text-anchor="middle" fill="#fca5a5" font-size="10">Anche se compromessa...</text>
  <text x="185" y="262" text-anchor="middle" fill="#fca5a5" font-size="9">il vero IP resta nascosto</text>

  <!-- Arrow between VMs -->
  <line x1="310" y1="185" x2="390" y2="185" stroke="#8b5cf6" stroke-width="2" marker-end="url(#arr5)"/>
  <text x="350" y="175" text-anchor="middle" fill="#c4b5fd" font-size="10">rete interna</text>
  <text x="350" y="200" text-anchor="middle" fill="#c4b5fd" font-size="9">isolata</text>

  <!-- Gateway VM -->
  <rect x="395" y="90" width="250" height="195" rx="12" fill="#8b5cf6" fill-opacity="0.08" stroke="#8b5cf6" stroke-width="2"/>
  <text x="520" y="115" text-anchor="middle" fill="#8b5cf6" font-size="14" font-weight="bold">VM Gateway</text>
  <text x="520" y="135" text-anchor="middle" fill="#c4b5fd" font-size="11">Instrada tutto via Tor</text>

  <!-- Tor nodes -->
  <circle cx="470" cy="180" r="22" fill="#8b5cf6" fill-opacity="0.2" stroke="#8b5cf6" stroke-width="1.5"/>
  <text x="470" y="185" text-anchor="middle" fill="#c4b5fd" font-size="9">Guard</text>

  <line x1="492" y1="180" x2="508" y2="180" stroke="#8b5cf6" stroke-width="1.5"/>

  <circle cx="530" cy="180" r="22" fill="#8b5cf6" fill-opacity="0.2" stroke="#8b5cf6" stroke-width="1.5"/>
  <text x="530" y="185" text-anchor="middle" fill="#c4b5fd" font-size="9">Middle</text>

  <line x1="552" y1="180" x2="568" y2="180" stroke="#8b5cf6" stroke-width="1.5"/>

  <circle cx="590" cy="180" r="22" fill="#8b5cf6" fill-opacity="0.2" stroke="#8b5cf6" stroke-width="1.5"/>
  <text x="590" y="185" text-anchor="middle" fill="#c4b5fd" font-size="9">Exit</text>

  <text x="530" y="225" text-anchor="middle" fill="#c4b5fd" font-size="11">Rete Tor (3 hop)</text>

  <!-- Extra features -->
  <rect x="430" y="240" width="180" height="35" rx="6" fill="#8b5cf6" fill-opacity="0.1" stroke="#8b5cf6" stroke-width="1"/>
  <text x="520" y="255" text-anchor="middle" fill="#c4b5fd" font-size="9">Stream isolation, clock randomization</text>
  <text x="520" y="268" text-anchor="middle" fill="#c4b5fd" font-size="9">keystroke anonymization, encrypted swap</text>

  <!-- Arrow to Internet -->
  <line x1="645" y1="185" x2="710" y2="185" stroke="#22c55e" stroke-width="2" marker-end="url(#arr6)"/>

  <text x="710" y="175" fill="#22c55e" font-size="11" font-weight="600">Internet</text>
  <text x="710" y="198" fill="#86efac" font-size="9">IP anonimo</text>

  <!-- Bottom note -->
  <text x="375" y="330" text-anchor="middle" fill="#64748b" font-size="11" font-style="italic">Tutto il traffico passa dal Gateway → impossibile leak dell'IP reale dalla Workstation</text>
</svg>
