<?xml version="1.0" encoding="UTF-8"?>
<svg xmlns="http://www.w3.org/2000/svg" xmlns:xlink="http://www.w3.org/1999/xlink" width="px" height="180px" viewBox="0 0 240 180" version="1.1">
<defs>
<linearGradient id="linear0" gradientUnits="userSpaceOnUse" x1="225.132797" y1="341.101807" x2="225.132797" y2="420.201111" gradientTransform="matrix(0.4,0,0,0.4,-48.37796,-63.103119)">
<stop offset="0" style="stop-color:rgb(68.235294%,41.568627%,66.27451%);stop-opacity:1;"/>
<stop offset="1" style="stop-color:rgb(40.784314%,25.098039%,57.254902%);stop-opacity:1;"/>
</linearGradient>
</defs>
<g id="surface1">
<path style="fill-rule:evenodd;fill:rgb(0.392157%,0.784314%,0.784314%);fill-opacity:1;stroke-width:1.5529;stroke-linecap:butt;stroke-linejoin:miter;stroke:rgb(13.333334%,13.333334%,14.509805%);stroke-opacity:1;stroke-miterlimit:4;" d="M 526.298828 164.003906 L 66.904297 164.003906 C 64.804688 164.003906 62.802734 164.199219 60.800781 164.501953 C 58.798828 164.804688 56.904297 165.498047 55.097656 166.396484 C 53.300781 167.304688 51.699219 168.496094 50.302734 170 C 48.896484 171.396484 47.695312 173.095703 46.796875 174.804688 C 45.898438 176.601562 45.302734 178.496094 44.902344 180.498047 C 44.501953 182.5 44.404297 184.599609 44.296875 186.601562 C 44.296875 187.001953 44.296875 187.5 44.296875 187.998047 C 44.296875 188.203125 44.296875 188.203125 44.296875 188.496094 C 44.296875 188.701172 44.296875 189.199219 44.296875 189.404297 L 44.296875 261.201172 C 44.296875 261.503906 44.296875 261.699219 44.296875 262.099609 C 44.296875 262.597656 44.296875 262.304688 44.296875 262.597656 C 44.296875 263.203125 44.296875 263.603516 44.296875 264.003906 C 44.296875 265.996094 44.501953 268.095703 44.902344 270.097656 C 45.195312 272.099609 45.898438 274.003906 46.796875 275.800781 C 47.695312 277.597656 48.896484 279.199219 50.302734 280.595703 C 51.699219 282.001953 53.300781 283.203125 55.097656 284.101562 C 56.904297 285 58.798828 285.595703 60.800781 285.996094 C 62.802734 286.298828 64.902344 286.503906 66.904297 286.503906 L 532.5 286.503906 C 534.501953 286.503906 536.601562 286.298828 538.603516 285.996094 C 540.595703 285.703125 542.5 285 544.296875 284.101562 C 547.900391 282.304688 550.800781 279.296875 552.695312 275.800781 C 553.603516 274.003906 554.199219 272.099609 554.599609 270.097656 C 554.902344 268.095703 555.097656 266.103516 555.195312 264.003906 C 555.195312 263.496094 555.195312 263.095703 555.195312 262.597656 L 555.195312 261.201172 C 555.195312 260.996094 555.195312 260.703125 555.195312 260.498047 L 555.195312 192.802734 C 555.195312 191.103516 555.195312 190.400391 555.195312 189.404297 L 555.195312 187.998047 C 555.195312 187.5 555.195312 187.001953 555.195312 186.601562 C 555.195312 184.501953 555 182.5 554.599609 180.498047 C 554.296875 178.496094 553.603516 176.601562 552.802734 174.804688 C 551.904297 172.998047 550.703125 171.396484 549.296875 170 C 547.900391 168.603516 546.298828 167.402344 544.501953 166.503906 C 542.695312 165.595703 540.800781 165 538.798828 164.599609 C 536.796875 164.296875 534.804688 164.101562 532.695312 164.101562 Z M 526.298828 164.003906 " transform="matrix(0.4,0,0,0.4,0,0)"/>
<path style=" stroke:none;fill-rule:evenodd;fill:url(#linear0);" d="M 56.878906 100.761719 C 56.078125 102.601562 54.519531 104 52.640625 104.558594 C 51.398438 104.878906 50.121094 105 48.800781 104.960938 L 34.558594 104.960938 C 33.28125 105 32 104.878906 30.71875 104.558594 C 28.800781 104 27.238281 102.601562 26.480469 100.761719 C 26 99.320312 25.800781 97.800781 25.839844 96.28125 L 25.839844 82.039062 C 25.761719 80.519531 25.960938 79 26.480469 77.558594 C 27.28125 75.71875 28.800781 74.320312 30.71875 73.761719 C 31.960938 73.441406 33.238281 73.320312 34.558594 73.359375 L 48.800781 73.359375 C 50.078125 73.320312 51.359375 73.441406 52.640625 73.761719 C 54.558594 74.359375 56.121094 75.761719 56.878906 77.601562 C 57.359375 79.039062 57.558594 80.558594 57.519531 82.078125 L 57.519531 96.28125 C 57.558594 97.800781 57.359375 99.320312 56.878906 100.761719 Z M 56.878906 100.761719 "/>
<path style=" stroke:none;fill-rule:nonzero;fill:rgb(100%,100%,100%);fill-opacity:1;" d="M 43.960938 91.519531 C 43.320312 90.960938 42.519531 90.640625 41.679688 90.679688 C 40.839844 90.640625 40 90.921875 39.398438 91.519531 C 39.160156 91.761719 39 92.078125 38.960938 92.441406 C 38.921875 93.238281 38.921875 94.039062 39 94.839844 C 39.078125 95.800781 39.238281 97.121094 39.441406 98.398438 C 39.519531 99 39.640625 99.601562 39.800781 100.199219 C 40.121094 100.960938 40.878906 101.398438 41.679688 101.28125 C 42.480469 101.359375 43.238281 100.921875 43.558594 100.199219 C 43.71875 99.601562 43.839844 99 43.921875 98.398438 C 44.121094 97.078125 44.28125 95.800781 44.359375 94.839844 C 44.441406 94.039062 44.480469 93.238281 44.398438 92.441406 C 44.398438 92.078125 44.238281 91.761719 43.960938 91.519531 Z M 39.078125 87.078125 C 39.078125 88.519531 40.238281 89.679688 41.679688 89.679688 C 43.121094 89.679688 44.28125 88.519531 44.28125 87.078125 C 44.28125 85.640625 43.121094 84.480469 41.679688 84.480469 C 40.238281 84.480469 39.078125 85.640625 39.078125 87.078125 Z M 41.601562 76.839844 C 35.441406 76.839844 30.480469 81.839844 30.519531 88 C 30.519531 92.71875 33.519531 96.878906 37.960938 98.441406 C 38.039062 98.480469 38.121094 98.441406 38.160156 98.359375 C 38.160156 98.320312 38.160156 98.320312 38.160156 98.28125 C 38.078125 97.921875 38.039062 97.519531 38 97.160156 C 38 97.039062 37.878906 96.921875 37.761719 96.839844 C 32.839844 94.71875 30.601562 89 32.71875 84.078125 C 34.839844 79.160156 40.558594 76.921875 45.480469 79.039062 C 50.398438 81.160156 52.640625 86.878906 50.519531 91.800781 C 49.558594 94.039062 47.761719 95.839844 45.480469 96.839844 C 45.359375 96.878906 45.28125 97 45.238281 97.121094 C 45.199219 97.480469 45.121094 97.878906 45.078125 98.238281 C 45.078125 98.320312 45.121094 98.398438 45.199219 98.398438 C 45.238281 98.398438 45.238281 98.398438 45.28125 98.398438 C 51.078125 96.359375 54.121094 90.039062 52.078125 84.238281 C 50.558594 79.800781 46.359375 76.839844 41.601562 76.839844 Z M 41.441406 81.960938 C 44.761719 81.839844 47.558594 84.441406 47.679688 87.761719 C 47.761719 89.519531 47.039062 91.199219 45.761719 92.398438 C 45.679688 92.480469 45.601562 92.640625 45.601562 92.761719 C 45.640625 93.199219 45.640625 93.601562 45.601562 94.039062 C 45.601562 94.121094 45.679688 94.199219 45.761719 94.199219 C 45.800781 94.199219 45.800781 94.199219 45.839844 94.160156 C 49.238281 91.839844 50.121094 87.199219 47.800781 83.800781 C 45.480469 80.398438 40.839844 79.519531 37.441406 81.839844 C 34.039062 84.160156 33.160156 88.800781 35.480469 92.199219 C 36 92.960938 36.679688 93.640625 37.441406 94.160156 C 37.519531 94.199219 37.601562 94.199219 37.640625 94.121094 C 37.640625 94.078125 37.679688 94.078125 37.679688 94.039062 C 37.640625 93.601562 37.640625 93.199219 37.679688 92.761719 C 37.679688 92.640625 37.640625 92.480469 37.519531 92.398438 C 35.078125 90.121094 34.960938 86.320312 37.238281 83.878906 C 38.359375 82.679688 39.839844 82 41.441406 81.960938 Z M 41.441406 81.960938 "/>
<path style=" stroke:none;fill-rule:nonzero;fill:rgb(100%,100%,100%);fill-opacity:1;" d="M 74.519531 99 L 68.558594 99 L 67.121094 103.199219 L 64.601562 103.199219 L 70.238281 87.601562 L 72.839844 87.601562 L 78.480469 103.199219 L 75.921875 103.199219 Z M 69.160156 97.039062 L 73.921875 97.039062 L 71.601562 90.199219 L 71.519531 90.199219 Z M 69.160156 97.039062 "/>
<path style=" stroke:none;fill-rule:nonzero;fill:rgb(100%,100%,100%);fill-opacity:1;" d="M 90.679688 97.519531 C 90.679688 101.039062 88.800781 103.320312 85.921875 103.320312 C 84.441406 103.398438 83.039062 102.640625 82.359375 101.320312 L 82.320312 101.320312 L 82.320312 106.960938 L 79.960938 106.960938 L 79.960938 91.839844 L 82.238281 91.839844 L 82.238281 93.71875 L 82.28125 93.71875 C 83.039062 92.441406 84.398438 91.640625 85.921875 91.71875 C 88.761719 91.71875 90.679688 94 90.679688 97.519531 Z M 88.28125 97.519531 C 88.28125 95.199219 87.078125 93.679688 85.28125 93.679688 C 83.480469 93.679688 82.28125 95.238281 82.28125 97.519531 C 82.28125 99.800781 83.480469 101.359375 85.28125 101.359375 C 87.078125 101.359375 88.28125 99.839844 88.28125 97.519531 Z M 88.28125 97.519531 "/>
<path style=" stroke:none;fill-rule:nonzero;fill:rgb(100%,100%,100%);fill-opacity:1;" d="M 103.199219 97.519531 C 103.199219 101.039062 101.320312 103.320312 98.441406 103.320312 C 96.960938 103.398438 95.558594 102.640625 94.878906 101.320312 L 94.800781 101.320312 L 94.800781 106.960938 L 92.480469 106.960938 L 92.480469 91.839844 L 94.761719 91.839844 L 94.761719 93.71875 L 94.800781 93.71875 C 95.558594 92.441406 96.921875 91.640625 98.441406 91.71875 C 101.28125 91.71875 103.199219 94 103.199219 97.519531 Z M 100.800781 97.519531 C 100.800781 95.199219 99.601562 93.679688 97.800781 93.679688 C 96 93.679688 94.800781 95.238281 94.800781 97.519531 C 94.800781 99.800781 96 101.359375 97.800781 101.359375 C 99.558594 101.359375 100.800781 99.839844 100.800781 97.519531 Z M 100.800781 97.519531 "/>
<path style=" stroke:none;fill-rule:nonzero;fill:rgb(100%,100%,100%);fill-opacity:1;" d="M 105.078125 87.601562 L 107.398438 87.601562 L 107.398438 103.199219 L 105.078125 103.199219 Z M 105.078125 87.601562 "/>
<path style=" stroke:none;fill-rule:nonzero;fill:rgb(100%,100%,100%);fill-opacity:1;" d="M 119.558594 99.878906 C 119.238281 101.960938 117.238281 103.359375 114.640625 103.359375 C 111.320312 103.359375 109.28125 101.160156 109.28125 97.601562 C 109.28125 94.039062 111.359375 91.71875 114.558594 91.71875 C 117.761719 91.71875 119.679688 93.878906 119.679688 97.320312 L 119.679688 98.121094 L 111.640625 98.121094 L 111.640625 98.28125 C 111.640625 100.238281 112.878906 101.480469 114.71875 101.480469 C 116 101.480469 117.039062 100.839844 117.359375 99.878906 Z M 111.679688 96.480469 L 117.398438 96.480469 C 117.359375 94.761719 116.238281 93.601562 114.601562 93.601562 C 113 93.558594 111.71875 94.839844 111.679688 96.441406 C 111.679688 96.441406 111.679688 96.441406 111.679688 96.480469 Z M 111.679688 96.480469 "/>
<path style=" stroke:none;fill-rule:nonzero;fill:rgb(100%,100%,100%);fill-opacity:1;" d="M 132.160156 87.601562 C 134.839844 87.480469 137.160156 89.558594 137.28125 92.238281 C 137.28125 92.398438 137.28125 92.558594 137.28125 92.71875 C 137.28125 95.761719 135.121094 97.878906 132.078125 97.878906 L 128.71875 97.878906 L 128.71875 103.199219 L 126.28125 103.199219 L 126.28125 87.601562 Z M 128.71875 95.839844 L 131.519531 95.839844 C 133.640625 95.839844 134.839844 94.71875 134.839844 92.71875 C 134.839844 90.761719 133.640625 89.601562 131.558594 89.601562 L 128.761719 89.601562 L 128.761719 95.839844 Z M 128.71875 95.839844 "/>
<path style=" stroke:none;fill-rule:nonzero;fill:rgb(100%,100%,100%);fill-opacity:1;" d="M 138.121094 97.519531 C 138.121094 93.960938 140.238281 91.679688 143.519531 91.679688 C 146.800781 91.679688 148.921875 93.921875 148.921875 97.519531 C 148.921875 101.121094 146.839844 103.359375 143.519531 103.359375 C 140.199219 103.359375 138.121094 101.121094 138.121094 97.519531 Z M 146.558594 97.519531 C 146.558594 95.039062 145.441406 93.601562 143.558594 93.601562 C 141.679688 93.601562 140.558594 95.039062 140.558594 97.519531 C 140.558594 99.960938 141.679688 101.441406 143.558594 101.441406 C 145.398438 101.398438 146.558594 100 146.558594 97.519531 Z M 146.558594 97.519531 "/>
<path style=" stroke:none;fill-rule:nonzero;fill:rgb(100%,100%,100%);fill-opacity:1;" d="M 150.558594 97.519531 C 150.558594 94 152.480469 91.71875 155.320312 91.71875 C 156.800781 91.640625 158.199219 92.441406 158.878906 93.71875 L 158.921875 93.71875 L 158.921875 87.601562 L 161.28125 87.601562 L 161.28125 103.199219 L 159 103.199219 L 159 101.28125 L 158.960938 101.28125 C 158.238281 102.601562 156.839844 103.398438 155.320312 103.320312 C 152.519531 103.320312 150.558594 101.039062 150.558594 97.519531 Z M 152.960938 97.519531 C 152.960938 99.839844 154.160156 101.359375 155.960938 101.359375 C 157.761719 101.359375 158.960938 99.839844 158.960938 97.519531 C 158.960938 95.199219 157.761719 93.71875 155.960938 93.71875 C 154.160156 93.71875 152.960938 95.199219 152.960938 97.519531 Z M 152.960938 97.519531 "/>
<path style=" stroke:none;fill-rule:nonzero;fill:rgb(100%,100%,100%);fill-opacity:1;" d="M 171.238281 95.71875 C 171.039062 94.441406 169.878906 93.519531 168.558594 93.640625 C 166.761719 93.640625 165.558594 95.160156 165.558594 97.519531 C 165.558594 99.878906 166.761719 101.398438 168.558594 101.398438 C 170 101.398438 170.960938 100.679688 171.238281 99.359375 L 173.480469 99.359375 C 173.199219 101.761719 171.320312 103.359375 168.558594 103.359375 C 165.320312 103.359375 163.199219 101.160156 163.199219 97.519531 C 163.199219 93.878906 165.320312 91.679688 168.558594 91.679688 C 171.480469 91.679688 173.28125 93.558594 173.519531 95.71875 Z M 171.238281 95.71875 "/>
<path style=" stroke:none;fill-rule:nonzero;fill:rgb(100%,100%,100%);fill-opacity:1;" d="M 174.921875 99.960938 C 174.921875 97.960938 176.441406 96.761719 179.160156 96.601562 L 182.28125 96.441406 L 182.28125 95.601562 C 182.28125 94.359375 181.441406 93.640625 180.039062 93.640625 C 178.761719 93.640625 177.839844 94.28125 177.640625 95.238281 L 175.441406 95.238281 C 175.519531 93.199219 177.398438 91.71875 180.078125 91.71875 C 182.761719 91.71875 184.601562 93.199219 184.601562 95.441406 L 184.601562 103.199219 L 182.359375 103.199219 L 182.359375 101.320312 L 182.320312 101.320312 C 181.601562 102.601562 180.199219 103.398438 178.71875 103.398438 C 176.480469 103.398438 174.921875 102 174.921875 99.960938 Z M 182.238281 98.960938 L 182.238281 98.078125 L 179.441406 98.238281 C 178.039062 98.320312 177.238281 98.921875 177.238281 99.921875 C 177.238281 100.921875 178.039062 101.558594 179.320312 101.558594 C 180.800781 101.679688 182.121094 100.519531 182.238281 99.039062 C 182.238281 99 182.238281 98.960938 182.238281 98.960938 Z M 182.238281 98.960938 "/>
<path style=" stroke:none;fill-rule:nonzero;fill:rgb(100%,100%,100%);fill-opacity:1;" d="M 191.078125 91.679688 C 193.601562 91.679688 195.441406 93.078125 195.441406 95.078125 L 193.238281 95.078125 C 193.160156 94.078125 192.28125 93.441406 191 93.441406 C 189.71875 93.441406 188.878906 94 188.878906 94.921875 C 188.878906 95.601562 189.441406 96.039062 190.640625 96.359375 L 192.558594 96.800781 C 194.839844 97.359375 195.71875 98.199219 195.71875 99.839844 C 195.71875 101.878906 193.761719 103.28125 191 103.28125 C 188.320312 103.28125 186.519531 101.921875 186.359375 99.839844 L 188.679688 99.839844 C 188.839844 100.921875 189.71875 101.519531 191.160156 101.519531 C 192.601562 101.519531 193.441406 100.960938 193.441406 100.039062 C 193.441406 99.320312 193 98.960938 191.800781 98.640625 L 189.761719 98.160156 C 187.71875 97.679688 186.640625 96.601562 186.640625 95.039062 C 186.640625 93.078125 188.441406 91.679688 191.078125 91.679688 Z M 191.078125 91.679688 "/>
<path style=" stroke:none;fill-rule:nonzero;fill:rgb(100%,100%,100%);fill-opacity:1;" d="M 200.800781 89.121094 L 200.800781 91.839844 L 202.960938 91.839844 L 202.960938 93.71875 L 200.800781 93.71875 L 200.800781 99.921875 C 200.800781 100.878906 201.238281 101.359375 202.199219 101.359375 C 202.441406 101.359375 202.839844 101.320312 202.960938 101.320312 L 202.960938 103.199219 C 202.519531 103.28125 202.078125 103.320312 201.679688 103.320312 C 199.359375 103.320312 198.480469 102.441406 198.480469 100.238281 L 198.480469 93.71875 L 196.800781 93.71875 L 196.800781 91.921875 L 198.441406 91.921875 L 198.441406 89.199219 L 200.800781 89.199219 Z M 200.800781 89.121094 "/>
<path style=" stroke:none;fill-rule:nonzero;fill:rgb(100%,100%,100%);fill-opacity:1;" d="M 209.238281 91.679688 C 211.761719 91.679688 213.601562 93.078125 213.601562 95.078125 L 211.398438 95.078125 C 211.320312 94.078125 210.441406 93.441406 209.160156 93.441406 C 207.878906 93.441406 207.039062 94 207.039062 94.921875 C 207.039062 95.601562 207.601562 96.039062 208.761719 96.359375 L 210.679688 96.800781 C 212.960938 97.359375 213.839844 98.199219 213.839844 99.839844 C 213.839844 101.878906 211.878906 103.28125 209.121094 103.28125 C 206.359375 103.28125 204.640625 101.921875 204.441406 99.839844 L 206.800781 99.839844 C 206.960938 100.921875 207.839844 101.519531 209.238281 101.519531 C 210.640625 101.519531 211.519531 100.960938 211.519531 100.039062 C 211.519531 99.320312 211.078125 98.960938 209.878906 98.640625 L 207.839844 98.160156 C 205.800781 97.679688 204.71875 96.601562 204.71875 95.039062 C 204.800781 93.078125 206.601562 91.679688 209.238281 91.679688 Z M 209.238281 91.679688 "/>
<path style=" stroke:none;fill-rule:nonzero;fill:rgb(100%,100%,100%);fill-opacity:1;" d="M 70.398438 82.441406 L 65.71875 82.441406 L 65.71875 74.960938 L 66.878906 74.960938 L 66.878906 81.398438 L 70.398438 81.398438 Z M 70.398438 82.441406 "/>
<path style=" stroke:none;fill-rule:nonzero;fill:rgb(100%,100%,100%);fill-opacity:1;" d="M 71.761719 75.121094 C 71.800781 74.71875 72.160156 74.441406 72.558594 74.480469 C 72.921875 74.519531 73.199219 74.800781 73.199219 75.121094 C 73.160156 75.519531 72.800781 75.800781 72.398438 75.761719 C 72.078125 75.761719 71.800781 75.480469 71.761719 75.121094 Z M 71.921875 76.800781 L 73.039062 76.800781 L 73.039062 82.441406 L 71.921875 82.441406 Z M 71.921875 76.800781 "/>
<path style=" stroke:none;fill-rule:nonzero;fill:rgb(100%,100%,100%);fill-opacity:1;" d="M 76.921875 76.679688 C 78.160156 76.679688 79.039062 77.320312 79.121094 78.28125 L 78.039062 78.28125 C 77.921875 77.878906 77.519531 77.601562 76.878906 77.601562 C 76.238281 77.601562 75.761719 77.878906 75.761719 78.320312 C 75.761719 78.640625 76.039062 78.878906 76.640625 79 L 77.601562 79.199219 C 78.679688 79.441406 79.160156 79.921875 79.160156 80.761719 C 79.160156 81.839844 78.160156 82.558594 76.800781 82.558594 C 75.441406 82.558594 74.558594 81.921875 74.480469 80.960938 L 75.601562 80.960938 C 75.800781 81.441406 76.320312 81.761719 76.839844 81.679688 C 77.519531 81.679688 78.039062 81.359375 78.039062 80.921875 C 78.039062 80.601562 77.761719 80.359375 77.199219 80.238281 L 76.199219 80 C 75.121094 79.761719 74.640625 79.28125 74.640625 78.441406 C 74.71875 77.398438 75.640625 76.679688 76.921875 76.679688 Z M 76.921875 76.679688 "/>
<path style=" stroke:none;fill-rule:nonzero;fill:rgb(100%,100%,100%);fill-opacity:1;" d="M 82.199219 75.359375 L 82.199219 76.800781 L 83.441406 76.800781 L 83.441406 77.761719 L 82.199219 77.761719 L 82.199219 80.679688 C 82.199219 81.28125 82.441406 81.519531 83 81.519531 C 83.160156 81.519531 83.28125 81.519531 83.441406 81.519531 L 83.441406 82.441406 C 83.238281 82.480469 83.039062 82.480469 82.800781 82.480469 C 81.558594 82.480469 81.078125 82.039062 81.078125 80.960938 L 81.078125 77.71875 L 80.160156 77.71875 L 80.160156 76.800781 L 81.078125 76.800781 L 81.078125 75.359375 Z M 82.199219 75.359375 "/>
<path style=" stroke:none;fill-rule:nonzero;fill:rgb(100%,100%,100%);fill-opacity:1;" d="M 89.640625 80.921875 C 89.398438 81.921875 88.480469 82.558594 87.160156 82.558594 C 85.519531 82.558594 84.558594 81.441406 84.558594 79.640625 C 84.558594 77.839844 85.558594 76.679688 87.160156 76.679688 C 88.761719 76.679688 89.679688 77.761719 89.679688 79.519531 L 89.679688 79.921875 L 85.761719 79.921875 L 85.761719 80 C 85.679688 80.839844 86.28125 81.558594 87.121094 81.601562 C 87.160156 81.601562 87.199219 81.601562 87.28125 81.601562 C 87.839844 81.679688 88.359375 81.398438 88.640625 80.921875 Z M 85.71875 79.078125 L 88.558594 79.078125 C 88.601562 78.320312 88.039062 77.679688 87.28125 77.601562 C 87.238281 77.601562 87.199219 77.601562 87.160156 77.601562 C 86.398438 77.601562 85.71875 78.238281 85.71875 79.078125 Z M 85.71875 79.078125 "/>
<path style=" stroke:none;fill-rule:nonzero;fill:rgb(100%,100%,100%);fill-opacity:1;" d="M 91.199219 76.800781 L 92.28125 76.800781 L 92.28125 77.71875 L 92.359375 77.71875 C 92.640625 77.039062 93.320312 76.640625 94.039062 76.71875 C 95.28125 76.71875 96 77.480469 96 78.839844 L 96 82.519531 L 94.878906 82.519531 L 94.878906 79.121094 C 94.878906 78.199219 94.480469 77.761719 93.640625 77.761719 C 92.921875 77.71875 92.320312 78.28125 92.28125 79 C 92.28125 79.078125 92.28125 79.121094 92.28125 79.199219 L 92.28125 82.519531 L 91.160156 82.519531 Z M 91.199219 76.800781 "/>
<path style=" stroke:none;fill-rule:nonzero;fill:rgb(100%,100%,100%);fill-opacity:1;" d="M 100.519531 79.601562 C 100.519531 77.761719 101.519531 76.679688 103.199219 76.679688 C 104.839844 76.679688 105.878906 77.800781 105.878906 79.601562 C 105.878906 81.398438 104.878906 82.519531 103.199219 82.519531 C 101.519531 82.519531 100.519531 81.441406 100.519531 79.601562 Z M 104.71875 79.601562 C 104.71875 78.359375 104.160156 77.640625 103.199219 77.640625 C 102.238281 77.640625 101.679688 78.359375 101.679688 79.601562 C 101.679688 80.839844 102.238281 81.558594 103.199219 81.558594 C 104.160156 81.558594 104.71875 80.839844 104.71875 79.601562 Z M 104.71875 79.601562 "/>
<path style=" stroke:none;fill-rule:nonzero;fill:rgb(100%,100%,100%);fill-opacity:1;" d="M 107.359375 76.800781 L 108.441406 76.800781 L 108.441406 77.71875 L 108.519531 77.71875 C 108.800781 77.039062 109.480469 76.640625 110.199219 76.71875 C 111.441406 76.71875 112.160156 77.480469 112.160156 78.839844 L 112.160156 82.519531 L 111.039062 82.519531 L 111.039062 79.121094 C 111.039062 78.199219 110.640625 77.761719 109.800781 77.761719 C 109.078125 77.71875 108.480469 78.28125 108.441406 79 C 108.441406 79.078125 108.441406 79.121094 108.441406 79.199219 L 108.441406 82.519531 L 107.320312 82.519531 Z M 107.359375 76.800781 "/>
</g>
</svg>
